<?xml version="1.0" standalone="no"?>
<!DOCTYPE svg PUBLIC "-//W3C//DTD SVG 20010904//EN"
 "http://www.w3.org/TR/2001/REC-SVG-20010904/DTD/svg10.dtd">
<svg version="1.0" xmlns="http://www.w3.org/2000/svg"
 width="700.000000pt" height="700.000000pt" viewBox="0 0 700.000000 700.000000"
 preserveAspectRatio="xMidYMid meet">
<metadata>
Created by potrace 1.11, written by Peter Selinger 2001-2013
</metadata>
<g transform="translate(0.000000,700.000000) scale(0.100000,-0.100000)"
fill="#000000" stroke="none">
<path d="M5706 6984 c-16 -15 -20 -47 -16 -129 2 -77 -10 -75 440 -75 465 0
431 -8 432 110 1 118 34 110 -438 110 -353 0 -405 -2 -418 -16z"/>
<path d="M469 6558 c-10 -4 -23 -18 -27 -30 -5 -13 -8 -1381 -8 -3040 1 -2854
2 -3018 18 -3035 17 -16 182 -17 3048 -17 2839 0 3031 1 3047 17 16 16 17 208
17 3047 0 2797 -2 3032 -17 3047 -15 15 -249 16 -3037 17 -1661 1 -3030 -2
-3041 -6z m5219 -2844 c0 -1086 -3 -1974 -8 -1974 -5 0 -10 4 -12 9 -2 7 -111
129 -178 201 -8 9 -53 58 -100 110 -106 118 -160 177 -230 254 -30 33 -59 65
-65 72 -5 6 -30 33 -55 60 -25 27 -83 92 -130 144 -75 84 -142 158 -190 210
-35 37 -179 198 -211 235 -19 21 -75 84 -124 140 -108 120 -466 515 -480 531
-5 6 -50 55 -100 109 -49 55 -101 111 -115 125 -14 15 -65 71 -115 125 -49 54
-101 110 -114 124 -12 14 -49 55 -81 91 -58 65 -69 77 -164 181 -28 30 -82 91
-121 134 -38 43 -79 88 -90 99 -11 12 -63 68 -115 126 -52 58 -99 110 -105
116 -5 6 -46 51 -90 99 -44 49 -89 99 -100 111 -11 12 -49 54 -85 94 -36 40
-74 82 -85 94 -107 117 -191 210 -231 255 -27 30 -57 63 -66 73 -10 10 -18 20
-18 22 0 2 805 3 1789 3 l1789 1 0 -1974z m-4191 1350 c45 -49 90 -98 100
-110 16 -18 134 -149 188 -208 11 -12 56 -62 100 -110 44 -49 89 -98 100 -110
11 -12 78 -86 150 -166 71 -80 135 -149 141 -155 5 -5 46 -50 90 -100 43 -49
84 -94 89 -100 6 -5 21 -22 34 -37 l24 -28 -599 0 -599 0 -1 661 0 662 50 -55
c28 -30 88 -94 133 -144z m1831 -2022 c20 -21 130 -142 338 -372 157 -175 203
-226 244 -270 22 -24 147 -162 205 -226 11 -12 54 -59 95 -105 93 -103 160
-178 271 -299 284 -313 396 -437 402 -447 5 -8 -477 -11 -1777 -11 -1325 0
-1786 3 -1789 12 -3 9 -2 1727 2 1734 0 1 449 2 996 2 944 0 996 -1 1013 -18z"/>
</g>
</svg>
