<?xml version="1.0" encoding="UTF-8" standalone="no"?>
<svg width="256px" height="256px" viewBox="0 0 256 256" version="1.1" xmlns="http://www.w3.org/2000/svg" xmlns:xlink="http://www.w3.org/1999/xlink">
    <!-- Generator: Sketch 44.1 (41455) - http://www.bohemiancoding.com/sketch -->
    <title>N</title>
    <desc>Created with Sketch.</desc>
    <defs>
        <path d="M32,16 L223.482409,227.428493 L223.482409,227.428493 C223.815521,227.796304 224,228.274818 224,228.771052 L224,238 L224,238 C224,239.104569 223.104569,240 222,240 L192,240 L0.517591253,28.571507 L0.517591253,28.571507 C0.18447942,28.203696 6.4115841e-17,27.7251824 4.4408921e-16,27.2289481 L0,18 L0,18 C-1.3527075e-16,16.8954305 0.8954305,16 2,16 L32,16 Z" id="path-1"></path>
        <filter x="-2.2%" y="-2.2%" width="104.5%" height="104.5%" filterUnits="objectBoundingBox" id="filter-2">
            <feGaussianBlur stdDeviation="4" in="SourceAlpha" result="shadowBlurInner1"></feGaussianBlur>
            <feOffset dx="2" dy="-2" in="shadowBlurInner1" result="shadowOffsetInner1"></feOffset>
            <feComposite in="shadowOffsetInner1" in2="SourceAlpha" operator="arithmetic" k2="-1" k3="1" result="shadowInnerInner1"></feComposite>
            <feColorMatrix values="0 0 0 0 0   0 0 0 0 0   0 0 0 0 0  0 0 0 0.1 0" type="matrix" in="shadowInnerInner1"></feColorMatrix>
        </filter>
        <linearGradient x1="14.5490641%" y1="14.3885538%" x2="21.4597829%" y2="14.3885538%" id="linearGradient-3">
            <stop stop-color="#000000" offset="0%"></stop>
            <stop stop-color="#FFFFFF" stop-opacity="0" offset="100%"></stop>
        </linearGradient>
        <path d="M194,16 L222,16 L222,16 C223.104569,16 224,16.8954305 224,18 L224,238 L224,238 C224,239.104569 223.104569,240 222,240 L192,240 L192,18 L192,18 C192,16.8954305 192.895431,16 194,16 Z" id="path-4"></path>
        <filter x="-15.6%" y="-2.2%" width="131.2%" height="104.5%" filterUnits="objectBoundingBox" id="filter-5">
            <feGaussianBlur stdDeviation="4" in="SourceAlpha" result="shadowBlurInner1"></feGaussianBlur>
            <feOffset dx="2" dy="-2" in="shadowBlurInner1" result="shadowOffsetInner1"></feOffset>
            <feComposite in="shadowOffsetInner1" in2="SourceAlpha" operator="arithmetic" k2="-1" k3="1" result="shadowInnerInner1"></feComposite>
            <feColorMatrix values="0 0 0 0 0   0 0 0 0 0   0 0 0 0 0  0 0 0 0.1 0" type="matrix" in="shadowInnerInner1"></feColorMatrix>
        </filter>
        <path d="M2,16 L32,16 L32,238 L32,238 C32,239.104569 31.1045695,240 30,240 L2,240 L2,240 C0.8954305,240 1.3527075e-16,239.104569 0,238 L0,18 L0,18 C-1.3527075e-16,16.8954305 0.8954305,16 2,16 Z" id="path-6"></path>
        <filter x="-15.6%" y="-2.2%" width="131.2%" height="104.5%" filterUnits="objectBoundingBox" id="filter-7">
            <feGaussianBlur stdDeviation="4" in="SourceAlpha" result="shadowBlurInner1"></feGaussianBlur>
            <feOffset dx="2" dy="-2" in="shadowBlurInner1" result="shadowOffsetInner1"></feOffset>
            <feComposite in="shadowOffsetInner1" in2="SourceAlpha" operator="arithmetic" k2="-1" k3="1" result="shadowInnerInner1"></feComposite>
            <feColorMatrix values="0 0 0 0 0   0 0 0 0 0   0 0 0 0 0  0 0 0 0.1 0" type="matrix" in="shadowInnerInner1"></feColorMatrix>
        </filter>
    </defs>
    <g id="N" stroke="none" stroke-width="1" fill="none" fill-rule="evenodd">
        <g transform="translate(16.000000, 0.000000)">
            <g>
                <path d="M17,16 L2,16 L2,16 C0.8954305,16 -1.3527075e-16,16.8954305 0,18 L0,18 L0,238 C1.3527075e-16,239.104569 0.8954305,240 2,240 L30,240 C31.1045695,240 32,239.104569 32,238 L32,63.3333333 L192,240 L222,240 C222.552285,240 223.052285,239.776142 223.414214,239.414214 C223.776142,239.052285 224,238.552285 224,238 L224,18 C224,16.8954305 223.104569,16 222,16 L194,16 C192.895431,16 192,16.8954305 192,18 L192,18 L192,192.666667 L32,16 L17,16 Z" id="shape" fill="#FFFFFF"></path>
                <g>
                    <g id="line-diagonal">
                        <use fill="#FFFFFF" fill-rule="evenodd" xlink:href="#path-1"></use>
                        <use fill="black" fill-opacity="1" filter="url(#filter-2)" xlink:href="#path-1"></use>
                    </g>
                    <g id="shadow-right" transform="translate(112.000000, 136.000000) scale(-1, -1) translate(-112.000000, -136.000000) translate(0.000000, 16.000000)" fill-opacity="0.3" fill="url(#linearGradient-3)">
                        <path d="M32,16 L223.482409,227.428493 L223.482409,227.428493 C223.815521,227.796304 224,228.274818 224,228.771052 L224,238 L224,238 C224,239.104569 223.104569,240 222,240 L192.88699,240 L192.88699,240 C192.32219,240 191.783721,239.761191 191.404582,239.342559 L0.517591253,28.571507 L0.517591253,28.571507 C0.18447942,28.203696 6.4115841e-17,27.7251824 4.4408921e-16,27.2289481 L0,18 L0,18 C-1.3527075e-16,16.8954305 0.8954305,16 2,16 L32,16 Z" id="shadow"></path>
                    </g>
                    <g id="shadow-left" fill-opacity="0.3" fill="url(#linearGradient-3)">
                        <path d="M32,16 L223.482409,227.428493 L223.482409,227.428493 C223.815521,227.796304 224,228.274818 224,228.771052 L224,238 L224,238 C224,239.104569 223.104569,240 222,240 L192.88699,240 L192.88699,240 C192.32219,240 191.783721,239.761191 191.404582,239.342559 L0.517591253,28.571507 L0.517591253,28.571507 C0.18447942,28.203696 6.4115841e-17,27.7251824 4.4408921e-16,27.2289481 L0,18 L0,18 C-1.3527075e-16,16.8954305 0.8954305,16 2,16 L32,16 Z" id="shadow"></path>
                    </g>
                    <g id="line-right">
                        <use fill="#FFFFFF" fill-rule="evenodd" xlink:href="#path-4"></use>
                        <use fill="black" fill-opacity="1" filter="url(#filter-5)" xlink:href="#path-4"></use>
                    </g>
                    <g id="line-left">
                        <use fill="#FFFFFF" fill-rule="evenodd" xlink:href="#path-6"></use>
                        <use fill="black" fill-opacity="1" filter="url(#filter-7)" xlink:href="#path-6"></use>
                    </g>
                </g>
            </g>
        </g>
    </g>
</svg>