<?xml version="1.0" encoding="UTF-8" standalone="no"?>
<svg width="256px" height="256px" viewBox="0 0 256 256" version="1.1" xmlns="http://www.w3.org/2000/svg" xmlns:xlink="http://www.w3.org/1999/xlink">
    <!-- Generator: Sketch 44.1 (41455) - http://www.bohemiancoding.com/sketch -->
    <title>Sprite</title>
    <desc>Created with Sketch.</desc>
    <defs>
        <filter x="-3.6%" y="-4.5%" width="109.4%" height="109.4%" filterUnits="objectBoundingBox" id="filter-1">
            <feOffset dx="2" dy="0" in="SourceAlpha" result="shadowOffsetOuter1"></feOffset>
            <feGaussianBlur stdDeviation="3" in="shadowOffsetOuter1" result="shadowBlurOuter1"></feGaussianBlur>
            <feColorMatrix values="0 0 0 0 0   0 0 0 0 0   0 0 0 0 0  0 0 0 0.25 0" type="matrix" in="shadowBlurOuter1" result="shadowMatrixOuter1"></feColorMatrix>
            <feMerge>
                <feMergeNode in="shadowMatrixOuter1"></feMergeNode>
                <feMergeNode in="SourceGraphic"></feMergeNode>
            </feMerge>
        </filter>
        <rect id="path-2" x="0" y="192" width="224" height="32" rx="2"></rect>
        <filter x="-1.8%" y="-12.5%" width="103.6%" height="125.0%" filterUnits="objectBoundingBox" id="filter-3">
            <feGaussianBlur stdDeviation="3" in="SourceAlpha" result="shadowBlurInner1"></feGaussianBlur>
            <feOffset dx="2" dy="2" in="shadowBlurInner1" result="shadowOffsetInner1"></feOffset>
            <feComposite in="shadowOffsetInner1" in2="SourceAlpha" operator="arithmetic" k2="-1" k3="1" result="shadowInnerInner1"></feComposite>
            <feColorMatrix values="0 0 0 0 0   0 0 0 0 0   0 0 0 0 0  0 0 0 0.1 0" type="matrix" in="shadowInnerInner1"></feColorMatrix>
        </filter>
        <rect id="path-4" x="0" y="0" width="224" height="32" rx="2"></rect>
        <filter x="-1.8%" y="-12.5%" width="103.6%" height="125.0%" filterUnits="objectBoundingBox" id="filter-5">
            <feGaussianBlur stdDeviation="3" in="SourceAlpha" result="shadowBlurInner1"></feGaussianBlur>
            <feOffset dx="2" dy="2" in="shadowBlurInner1" result="shadowOffsetInner1"></feOffset>
            <feComposite in="shadowOffsetInner1" in2="SourceAlpha" operator="arithmetic" k2="-1" k3="1" result="shadowInnerInner1"></feComposite>
            <feColorMatrix values="0 0 0 0 0   0 0 0 0 0   0 0 0 0 0  0 0 0 0.1 0" type="matrix" in="shadowInnerInner1"></feColorMatrix>
        </filter>
        <path d="M32,0 L223.482409,211.428493 L223.482409,211.428493 C223.815521,211.796304 224,212.274818 224,212.771052 L224,222 L224,222 C224,223.104569 223.104569,224 222,224 L192.88699,224 L192.88699,224 C192.32219,224 191.783721,223.761191 191.404582,223.342559 L0.517591253,12.571507 L0.517591253,12.571507 C0.18447942,12.203696 6.4115841e-17,11.7251824 4.4408921e-16,11.2289481 L0,2 L0,2 C-1.3527075e-16,0.8954305 0.8954305,2.02906125e-16 2,0 L32,0 Z" id="path-6"></path>
        <filter x="-1.8%" y="-1.8%" width="103.6%" height="103.6%" filterUnits="objectBoundingBox" id="filter-7">
            <feGaussianBlur stdDeviation="3" in="SourceAlpha" result="shadowBlurInner1"></feGaussianBlur>
            <feOffset dx="2" dy="2" in="shadowBlurInner1" result="shadowOffsetInner1"></feOffset>
            <feComposite in="shadowOffsetInner1" in2="SourceAlpha" operator="arithmetic" k2="-1" k3="1" result="shadowInnerInner1"></feComposite>
            <feColorMatrix values="0 0 0 0 0   0 0 0 0 0   0 0 0 0 0  0 0 0 0.1 0" type="matrix" in="shadowInnerInner1"></feColorMatrix>
        </filter>
        <polygon id="path-8" points="0 96 119 96 148 128 0 128"></polygon>
        <filter x="-2.7%" y="-12.5%" width="105.4%" height="125.0%" filterUnits="objectBoundingBox" id="filter-9">
            <feGaussianBlur stdDeviation="3" in="SourceAlpha" result="shadowBlurInner1"></feGaussianBlur>
            <feOffset dx="2" dy="2" in="shadowBlurInner1" result="shadowOffsetInner1"></feOffset>
            <feComposite in="shadowOffsetInner1" in2="SourceAlpha" operator="arithmetic" k2="-1" k3="1" result="shadowInnerInner1"></feComposite>
            <feColorMatrix values="0 0 0 0 0   0 0 0 0 0   0 0 0 0 0  0 0 0 0.1 0" type="matrix" in="shadowInnerInner1"></feColorMatrix>
        </filter>
        <path d="M2,0 L32,0 L32,222 L32,222 C32,223.104569 31.1045695,224 30,224 L2,224 L2,224 C0.8954305,224 1.3527075e-16,223.104569 0,222 L0,2 L0,2 C-1.3527075e-16,0.8954305 0.8954305,2.02906125e-16 2,0 Z" id="path-10"></path>
        <filter x="-12.5%" y="-1.8%" width="125.0%" height="103.6%" filterUnits="objectBoundingBox" id="filter-11">
            <feGaussianBlur stdDeviation="3" in="SourceAlpha" result="shadowBlurInner1"></feGaussianBlur>
            <feOffset dx="2" dy="2" in="shadowBlurInner1" result="shadowOffsetInner1"></feOffset>
            <feComposite in="shadowOffsetInner1" in2="SourceAlpha" operator="arithmetic" k2="-1" k3="1" result="shadowInnerInner1"></feComposite>
            <feColorMatrix values="0 0 0 0 0   0 0 0 0 0   0 0 0 0 0  0 0 0 0.1 0" type="matrix" in="shadowInnerInner1"></feColorMatrix>
        </filter>
        <rect id="path-12" x="192" y="0" width="32" height="224" rx="2"></rect>
        <filter x="-12.5%" y="-1.8%" width="125.0%" height="103.6%" filterUnits="objectBoundingBox" id="filter-13">
            <feGaussianBlur stdDeviation="3" in="SourceAlpha" result="shadowBlurInner1"></feGaussianBlur>
            <feOffset dx="2" dy="2" in="shadowBlurInner1" result="shadowOffsetInner1"></feOffset>
            <feComposite in="shadowOffsetInner1" in2="SourceAlpha" operator="arithmetic" k2="-1" k3="1" result="shadowInnerInner1"></feComposite>
            <feColorMatrix values="0 0 0 0 0   0 0 0 0 0   0 0 0 0 0  0 0 0 0.1 0" type="matrix" in="shadowInnerInner1"></feColorMatrix>
        </filter>
        <rect id="path-14" x="0" y="192" width="224" height="32" rx="2"></rect>
        <filter x="-1.8%" y="-12.5%" width="103.6%" height="125.0%" filterUnits="objectBoundingBox" id="filter-15">
            <feGaussianBlur stdDeviation="3" in="SourceAlpha" result="shadowBlurInner1"></feGaussianBlur>
            <feOffset dx="2" dy="2" in="shadowBlurInner1" result="shadowOffsetInner1"></feOffset>
            <feComposite in="shadowOffsetInner1" in2="SourceAlpha" operator="arithmetic" k2="-1" k3="1" result="shadowInnerInner1"></feComposite>
            <feColorMatrix values="0 0 0 0 0   0 0 0 0 0   0 0 0 0 0  0 0 0 0.1 0" type="matrix" in="shadowInnerInner1"></feColorMatrix>
        </filter>
        <rect id="path-16" x="0" y="0" width="224" height="32" rx="2"></rect>
        <filter x="-1.8%" y="-12.5%" width="103.6%" height="125.0%" filterUnits="objectBoundingBox" id="filter-17">
            <feGaussianBlur stdDeviation="3" in="SourceAlpha" result="shadowBlurInner1"></feGaussianBlur>
            <feOffset dx="2" dy="2" in="shadowBlurInner1" result="shadowOffsetInner1"></feOffset>
            <feComposite in="shadowOffsetInner1" in2="SourceAlpha" operator="arithmetic" k2="-1" k3="1" result="shadowInnerInner1"></feComposite>
            <feColorMatrix values="0 0 0 0 0   0 0 0 0 0   0 0 0 0 0  0 0 0 0.1 0" type="matrix" in="shadowInnerInner1"></feColorMatrix>
        </filter>
        <path d="M2,0 L32,0 L32,224 L2,224 L2,224 C0.8954305,224 1.3527075e-16,223.104569 0,222 L0,2 L0,2 C-1.3527075e-16,0.8954305 0.8954305,2.02906125e-16 2,0 Z" id="path-18"></path>
        <filter x="-12.5%" y="-1.8%" width="125.0%" height="103.6%" filterUnits="objectBoundingBox" id="filter-19">
            <feGaussianBlur stdDeviation="3" in="SourceAlpha" result="shadowBlurInner1"></feGaussianBlur>
            <feOffset dx="2" dy="2" in="shadowBlurInner1" result="shadowOffsetInner1"></feOffset>
            <feComposite in="shadowOffsetInner1" in2="SourceAlpha" operator="arithmetic" k2="-1" k3="1" result="shadowInnerInner1"></feComposite>
            <feColorMatrix values="0 0 0 0 0   0 0 0 0 0   0 0 0 0 0  0 0 0 0.1 0" type="matrix" in="shadowInnerInner1"></feColorMatrix>
        </filter>
        <path d="M0,96 L118.113397,96 L118.113397,96 C118.677972,96 119.216248,96.2386186 119.595371,96.6569612 L144.970371,124.656961 L144.970371,124.656961 C145.712111,125.475433 145.649908,126.740234 144.831436,127.481974 C144.463567,127.815355 143.984855,128 143.488397,128 L0,128 L0,96 Z" id="path-20"></path>
        <filter x="-2.7%" y="-12.5%" width="105.4%" height="125.0%" filterUnits="objectBoundingBox" id="filter-21">
            <feGaussianBlur stdDeviation="3" in="SourceAlpha" result="shadowBlurInner1"></feGaussianBlur>
            <feOffset dx="2" dy="2" in="shadowBlurInner1" result="shadowOffsetInner1"></feOffset>
            <feComposite in="shadowOffsetInner1" in2="SourceAlpha" operator="arithmetic" k2="-1" k3="1" result="shadowInnerInner1"></feComposite>
            <feColorMatrix values="0 0 0 0 0   0 0 0 0 0   0 0 0 0 0  0 0 0 0.1 0" type="matrix" in="shadowInnerInner1"></feColorMatrix>
        </filter>
        <linearGradient x1="100%" y1="50%" x2="0%" y2="50%" id="linearGradient-22">
            <stop stop-color="#FFFFFF" stop-opacity="0" offset="0%"></stop>
            <stop stop-color="#000000" offset="100%"></stop>
        </linearGradient>
        <linearGradient x1="0%" y1="50%" x2="100%" y2="50%" id="linearGradient-23">
            <stop stop-color="#FFFFFF" offset="0%"></stop>
            <stop stop-color="#FFFFFF" stop-opacity="0" offset="100%"></stop>
        </linearGradient>
        <path d="M32,16 L223.482409,227.428493 L223.482409,227.428493 C223.815521,227.796304 224,228.274818 224,228.771052 L224,238 L224,238 C224,239.104569 223.104569,240 222,240 L192.88699,240 L192.88699,240 C192.32219,240 191.783721,239.761191 191.404582,239.342559 L0.517591253,28.571507 L0.517591253,28.571507 C0.18447942,28.203696 6.4115841e-17,27.7251824 4.4408921e-16,27.2289481 L0,18 L0,18 C-1.3527075e-16,16.8954305 0.8954305,16 2,16 L32,16 Z" id="path-24"></path>
        <filter x="-1.8%" y="-1.8%" width="103.6%" height="103.6%" filterUnits="objectBoundingBox" id="filter-25">
            <feGaussianBlur stdDeviation="3" in="SourceAlpha" result="shadowBlurInner1"></feGaussianBlur>
            <feOffset dx="2" dy="2" in="shadowBlurInner1" result="shadowOffsetInner1"></feOffset>
            <feComposite in="shadowOffsetInner1" in2="SourceAlpha" operator="arithmetic" k2="-1" k3="1" result="shadowInnerInner1"></feComposite>
            <feColorMatrix values="0 0 0 0 0   0 0 0 0 0   0 0 0 0 0  0 0 0 0.1 0" type="matrix" in="shadowInnerInner1"></feColorMatrix>
        </filter>
        <polygon id="path-26" points="0 112 119 112 148 144 0 144"></polygon>
        <filter x="-2.7%" y="-12.5%" width="105.4%" height="125.0%" filterUnits="objectBoundingBox" id="filter-27">
            <feGaussianBlur stdDeviation="3" in="SourceAlpha" result="shadowBlurInner1"></feGaussianBlur>
            <feOffset dx="2" dy="2" in="shadowBlurInner1" result="shadowOffsetInner1"></feOffset>
            <feComposite in="shadowOffsetInner1" in2="SourceAlpha" operator="arithmetic" k2="-1" k3="1" result="shadowInnerInner1"></feComposite>
            <feColorMatrix values="0 0 0 0 0   0 0 0 0 0   0 0 0 0 0  0 0 0 0.1 0" type="matrix" in="shadowInnerInner1"></feColorMatrix>
        </filter>
        <linearGradient x1="50%" y1="0%" x2="50%" y2="100%" id="linearGradient-28">
            <stop stop-color="#FFFFFF" stop-opacity="0" offset="0%"></stop>
            <stop stop-color="#000000" offset="100%"></stop>
        </linearGradient>
        <linearGradient x1="14.5490641%" y1="14.3885538%" x2="21.4597829%" y2="14.3885538%" id="linearGradient-29">
            <stop stop-color="#000000" offset="0%"></stop>
            <stop stop-color="#FFFFFF" stop-opacity="0" offset="100%"></stop>
        </linearGradient>
        <path d="M2,16 L32,16 L32,238 L32,238 C32,239.104569 31.1045695,240 30,240 L2,240 L2,240 C0.8954305,240 1.3527075e-16,239.104569 0,238 L0,18 L0,18 C-1.3527075e-16,16.8954305 0.8954305,16 2,16 Z" id="path-30"></path>
        <filter x="-12.5%" y="-1.8%" width="125.0%" height="103.6%" filterUnits="objectBoundingBox" id="filter-31">
            <feGaussianBlur stdDeviation="3" in="SourceAlpha" result="shadowBlurInner1"></feGaussianBlur>
            <feOffset dx="2" dy="2" in="shadowBlurInner1" result="shadowOffsetInner1"></feOffset>
            <feComposite in="shadowOffsetInner1" in2="SourceAlpha" operator="arithmetic" k2="-1" k3="1" result="shadowInnerInner1"></feComposite>
            <feColorMatrix values="0 0 0 0 0   0 0 0 0 0   0 0 0 0 0  0 0 0 0.1 0" type="matrix" in="shadowInnerInner1"></feColorMatrix>
        </filter>
        <rect id="path-32" x="0" y="0" width="32" height="224" rx="2"></rect>
        <filter x="-12.5%" y="-1.8%" width="125.0%" height="103.6%" filterUnits="objectBoundingBox" id="filter-33">
            <feGaussianBlur stdDeviation="3" in="SourceAlpha" result="shadowBlurInner1"></feGaussianBlur>
            <feOffset dx="2" dy="2" in="shadowBlurInner1" result="shadowOffsetInner1"></feOffset>
            <feComposite in="shadowOffsetInner1" in2="SourceAlpha" operator="arithmetic" k2="-1" k3="1" result="shadowInnerInner1"></feComposite>
            <feColorMatrix values="0 0 0 0 0   0 0 0 0 0   0 0 0 0 0  0 0 0 0.1 0" type="matrix" in="shadowInnerInner1"></feColorMatrix>
        </filter>
    </defs>
    <g id="Sprite" stroke="none" stroke-width="1" fill="none" fill-rule="evenodd">
        <g id="Sprite-flat" filter="url(#filter-1)" transform="translate(16.000000, 16.000000)">
            <g id="line-bottom">
                <use fill="#FFFFFF" fill-rule="evenodd" xlink:href="#path-2"></use>
                <use fill="black" fill-opacity="1" filter="url(#filter-3)" xlink:href="#path-2"></use>
            </g>
            <g id="line-top">
                <use fill="#FFFFFF" fill-rule="evenodd" xlink:href="#path-4"></use>
                <use fill="black" fill-opacity="1" filter="url(#filter-5)" xlink:href="#path-4"></use>
            </g>
            <g id="line-diagonal">
                <use fill="#FFFFFF" fill-rule="evenodd" xlink:href="#path-6"></use>
                <use fill="black" fill-opacity="1" filter="url(#filter-7)" xlink:href="#path-6"></use>
            </g>
            <g id="line-middle">
                <use fill="#FFFFFF" fill-rule="evenodd" xlink:href="#path-8"></use>
                <use fill="black" fill-opacity="1" filter="url(#filter-9)" xlink:href="#path-8"></use>
            </g>
            <g id="line-left">
                <use fill="#FFFFFF" fill-rule="evenodd" xlink:href="#path-10"></use>
                <use fill="black" fill-opacity="1" filter="url(#filter-11)" xlink:href="#path-10"></use>
            </g>
            <g id="line-right">
                <use fill="#FFFFFF" fill-rule="evenodd" xlink:href="#path-12"></use>
                <use fill="black" fill-opacity="1" filter="url(#filter-13)" xlink:href="#path-12"></use>
            </g>
        </g>
        <g transform="translate(16.000000, 0.000000)">
            <g id="E" transform="translate(0.000000, 16.000000)">
                <g id="line-bottom">
                    <use fill="#FFFFFF" fill-rule="evenodd" xlink:href="#path-14"></use>
                    <use fill="black" fill-opacity="1" filter="url(#filter-15)" xlink:href="#path-14"></use>
                </g>
                <g id="line-top">
                    <use fill="#FFFFFF" fill-rule="evenodd" xlink:href="#path-16"></use>
                    <use fill="black" fill-opacity="1" filter="url(#filter-17)" xlink:href="#path-16"></use>
                </g>
                <g id="line-left">
                    <use fill="#FFFFFF" fill-rule="evenodd" xlink:href="#path-18"></use>
                    <use fill="black" fill-opacity="1" filter="url(#filter-19)" xlink:href="#path-18"></use>
                </g>
                <g id="line-middle">
                    <use fill="#FFFFFF" fill-rule="evenodd" xlink:href="#path-20"></use>
                    <use fill="black" fill-opacity="1" filter="url(#filter-21)" xlink:href="#path-20"></use>
                </g>
                <g id="shadow-base-symbol" transform="translate(32.000000, 192.000000)">
                    <rect id="shadow" fill-opacity="0.3" fill="url(#linearGradient-22)" x="0" y="0" width="12" height="32"></rect>
                    <rect id="light" fill="url(#linearGradient-23)" opacity="0.7" x="0" y="0" width="12" height="1"></rect>
                </g>
                <g id="shadow-base-symbol" transform="translate(32.000000, 0.000000)">
                    <rect id="shadow" fill-opacity="0.3" fill="url(#linearGradient-22)" x="0" y="0" width="12" height="32"></rect>
                    <rect id="light" fill="url(#linearGradient-23)" opacity="0.7" x="0" y="0" width="12" height="1"></rect>
                </g>
                <g id="shadow-base-symbol" transform="translate(16.000000, 136.000000) scale(-1, 1) rotate(90.000000) translate(-16.000000, -136.000000) translate(8.000000, 120.000000)">
                    <rect id="shadow" fill-opacity="0.3" fill="url(#linearGradient-22)" x="0" y="0" width="16" height="32"></rect>
                    <rect id="light" fill="url(#linearGradient-23)" opacity="0.7" x="0" y="0" width="16" height="1"></rect>
                </g>
                <g id="shadow-base-symbol" transform="translate(16.000000, 88.000000) rotate(-90.000000) translate(-16.000000, -88.000000) translate(8.000000, 72.000000)">
                    <rect id="shadow" fill-opacity="0.3" fill="url(#linearGradient-22)" x="0" y="0" width="16" height="32"></rect>
                    <rect id="light" fill="url(#linearGradient-23)" opacity="0.7" x="0" y="0" width="16" height="1"></rect>
                </g>
            </g>
            <g id="shadow-base-symbol" transform="translate(186.000000, 224.000000) scale(-1, 1) translate(-186.000000, -224.000000) translate(180.000000, 208.000000)">
                <rect id="shadow" fill-opacity="0.3" fill="url(#linearGradient-22)" x="0" y="0" width="12" height="32"></rect>
                <rect id="light" fill="url(#linearGradient-23)" opacity="0.7" x="0" y="0" width="12" height="1"></rect>
            </g>
            <g id="A">
                <g id="line-diagonal">
                    <use fill="#FFFFFF" fill-rule="evenodd" xlink:href="#path-24"></use>
                    <use fill="black" fill-opacity="1" filter="url(#filter-25)" xlink:href="#path-24"></use>
                </g>
                <g id="line-middle">
                    <use fill="#FFFFFF" fill-rule="evenodd" xlink:href="#path-26"></use>
                    <use fill="black" fill-opacity="1" filter="url(#filter-27)" xlink:href="#path-26"></use>
                </g>
                <g id="shadow-base-symbol" transform="translate(32.000000, 112.000000)">
                    <rect id="shadow" fill-opacity="0.3" fill="url(#linearGradient-22)" x="0" y="0" width="16" height="32"></rect>
                    <rect id="light" fill="url(#linearGradient-23)" opacity="0.7" x="0" y="0" width="16" height="1"></rect>
                </g>
                <g id="shadow-diagonal-middle-symbol" transform="translate(134.000000, 152.000000) scale(-1, -1) translate(-134.000000, -152.000000) translate(105.000000, 144.000000)" fill-opacity="0.3" fill="url(#linearGradient-28)">
                    <polygon id="shadow" points="0.5 0 43.5 0 58 16 15 16"></polygon>
                </g>
                <g id="shadow-diagonal-middle-symbol" transform="translate(61.000000, 96.000000)" fill-opacity="0.3" fill="url(#linearGradient-28)">
                    <polygon id="shadow" points="0.5 0 43.5 0 58 16 15 16"></polygon>
                </g>
                <g id="shadow-diagonal-top" fill-opacity="0.3" fill="url(#linearGradient-29)">
                    <path d="M32,16 L223.482409,227.428493 L223.482409,227.428493 C223.815521,227.796304 224,228.274818 224,228.771052 L224,238 L224,238 C224,239.104569 223.104569,240 222,240 L192.88699,240 L192.88699,240 C192.32219,240 191.783721,239.761191 191.404582,239.342559 L0.517591253,28.571507 L0.517591253,28.571507 C0.18447942,28.203696 6.4115841e-17,27.7251824 4.4408921e-16,27.2289481 L0,18 L0,18 C-1.3527075e-16,16.8954305 0.8954305,16 2,16 L32,16 Z" id="shadow"></path>
                </g>
                <g id="line-left">
                    <use fill="#FFFFFF" fill-rule="evenodd" xlink:href="#path-30"></use>
                    <use fill="black" fill-opacity="1" filter="url(#filter-31)" xlink:href="#path-30"></use>
                </g>
            </g>
            <g id="shadow-addon-diagonal" transform="translate(112.000000, 136.000000) scale(-1, -1) translate(-112.000000, -136.000000) translate(0.000000, 16.000000)" fill-opacity="0.3" fill="url(#linearGradient-29)">
                <path d="M32,16 L223.482409,227.428493 L223.482409,227.428493 C223.815521,227.796304 224,228.274818 224,228.771052 L224,238 L224,238 C224,239.104569 223.104569,240 222,240 L192.88699,240 L192.88699,240 C192.32219,240 191.783721,239.761191 191.404582,239.342559 L0.517591253,28.571507 L0.517591253,28.571507 C0.18447942,28.203696 6.4115841e-17,27.7251824 4.4408921e-16,27.2289481 L0,18 L0,18 C-1.3527075e-16,16.8954305 0.8954305,16 2,16 L32,16 Z" id="shadow"></path>
            </g>
            <g id="I" transform="translate(192.000000, 16.000000)">
                <g id="line-right">
                    <use fill="#FFFFFF" fill-rule="evenodd" xlink:href="#path-32"></use>
                    <use fill="black" fill-opacity="1" filter="url(#filter-33)" xlink:href="#path-32"></use>
                </g>
            </g>
            <g id="shadow-base-symbol" transform="translate(186.000000, 32.000000) scale(-1, 1) translate(-186.000000, -32.000000) translate(180.000000, 16.000000)">
                <rect id="shadow" fill-opacity="0.3" fill="url(#linearGradient-22)" x="0" y="0" width="12" height="32"></rect>
                <rect id="light" fill="url(#linearGradient-23)" opacity="0.7" x="0" y="0" width="12" height="1"></rect>
            </g>
        </g>
    </g>
</svg>