<?xml version="1.0" encoding="UTF-8" standalone="no"?>
<svg width="256px" height="256px" viewBox="0 0 256 256" version="1.1" xmlns="http://www.w3.org/2000/svg" xmlns:xlink="http://www.w3.org/1999/xlink">
    <!-- Generator: Sketch 44.1 (41455) - http://www.bohemiancoding.com/sketch -->
    <title>V</title>
    <desc>Created with Sketch.</desc>
    <defs>
        <path d="M32.5954184,0.657441135 L223.482409,211.428493 L223.482409,211.428493 C223.815521,211.796304 224,212.274818 224,212.771052 L224,222 L224,222 C224,223.104569 223.104569,224 222,224 L192,224 L0.517591253,12.571507 L0.517591253,12.571507 C0.18447942,12.203696 6.4115841e-17,11.7251824 4.4408921e-16,11.2289481 L0,2 L0,2 C-1.3527075e-16,0.8954305 0.8954305,2.02906125e-16 2,0 L31.1130096,0 L31.1130096,4.4408921e-15 C31.67781,3.33385291e-15 32.2162795,0.238808612 32.5954184,0.657441135 Z" id="path-1"></path>
        <filter x="-2.2%" y="-2.2%" width="104.5%" height="104.5%" filterUnits="objectBoundingBox" id="filter-2">
            <feGaussianBlur stdDeviation="4" in="SourceAlpha" result="shadowBlurInner1"></feGaussianBlur>
            <feOffset dx="2" dy="-2" in="shadowBlurInner1" result="shadowOffsetInner1"></feOffset>
            <feComposite in="shadowOffsetInner1" in2="SourceAlpha" operator="arithmetic" k2="-1" k3="1" result="shadowInnerInner1"></feComposite>
            <feColorMatrix values="0 0 0 0 0   0 0 0 0 0   0 0 0 0 0  0 0 0 0.1 0" type="matrix" in="shadowInnerInner1"></feColorMatrix>
        </filter>
        <linearGradient x1="14.5490641%" y1="14.3885538%" x2="21.4597829%" y2="14.3885538%" id="linearGradient-3">
            <stop stop-color="#000000" offset="0%"></stop>
            <stop stop-color="#FFFFFF" stop-opacity="0" offset="100%"></stop>
        </linearGradient>
        <path d="M194,0 L222,0 L222,0 C223.104569,-2.02906125e-16 224,0.8954305 224,2 L224,222 L224,222 C224,223.104569 223.104569,224 222,224 L192,224 L192,2 L192,2 C192,0.8954305 192.895431,2.02906125e-16 194,0 Z" id="path-4"></path>
        <filter x="-15.6%" y="-2.2%" width="131.2%" height="104.5%" filterUnits="objectBoundingBox" id="filter-5">
            <feGaussianBlur stdDeviation="4" in="SourceAlpha" result="shadowBlurInner1"></feGaussianBlur>
            <feOffset dx="2" dy="-2" in="shadowBlurInner1" result="shadowOffsetInner1"></feOffset>
            <feComposite in="shadowOffsetInner1" in2="SourceAlpha" operator="arithmetic" k2="-1" k3="1" result="shadowInnerInner1"></feComposite>
            <feColorMatrix values="0 0 0 0 0   0 0 0 0 0   0 0 0 0 0  0 0 0 0.1 0" type="matrix" in="shadowInnerInner1"></feColorMatrix>
        </filter>
    </defs>
    <g id="V" stroke="none" stroke-width="1" fill="none" fill-rule="evenodd">
        <g transform="translate(16.000000, 16.000000)">
            <g>
                <path d="M223.414214,223.414214 C223.776142,223.052285 224,222.552285 224,222 L224,2 C224,0.8954305 223.104569,-2.02906125e-16 222,0 L194,0 C192.895431,2.02906125e-16 192,0.8954305 192,2 L192,2 L192,176.666667 L32.5954184,0.657441135 L32.5954184,0.657441135 C32.2162795,0.238808612 31.67781,3.77794212e-15 31.1130096,4.88498131e-15 L31.1130096,0 L2,0 C0.8954305,2.02906125e-16 -1.3527075e-16,0.8954305 0,2 L0,2 L-1.11022302e-15,11.2289481 C-1.49019639e-15,11.7251824 0.18447942,12.203696 0.517591253,12.571507 L0.517591253,12.571507 L192,224 L222,224 C222.552285,224 223.052285,223.776142 223.414214,223.414214 Z" id="shape" fill="#FFFFFF"></path>
                <g>
                    <g id="line-diagonal">
                        <use fill="#FFFFFF" fill-rule="evenodd" xlink:href="#path-1"></use>
                        <use fill="black" fill-opacity="1" filter="url(#filter-2)" xlink:href="#path-1"></use>
                    </g>
                    <g id="shadow-diagonal" transform="translate(112.000000, 120.000000) scale(-1, -1) translate(-112.000000, -120.000000) " fill-opacity="0.3" fill="url(#linearGradient-3)">
                        <path d="M32,16 L223.482409,227.428493 L223.482409,227.428493 C223.815521,227.796304 224,228.274818 224,228.771052 L224,238 L224,238 C224,239.104569 223.104569,240 222,240 L192.88699,240 L192.88699,240 C192.32219,240 191.783721,239.761191 191.404582,239.342559 L0.517591253,28.571507 L0.517591253,28.571507 C0.18447942,28.203696 6.4115841e-17,27.7251824 4.4408921e-16,27.2289481 L0,18 L0,18 C-1.3527075e-16,16.8954305 0.8954305,16 2,16 L32,16 Z" id="shadow"></path>
                    </g>
                    <g id="line-right">
                        <use fill="#FFFFFF" fill-rule="evenodd" xlink:href="#path-4"></use>
                        <use fill="black" fill-opacity="1" filter="url(#filter-5)" xlink:href="#path-4"></use>
                    </g>
                </g>
            </g>
        </g>
    </g>
</svg>