<?xml version="1.0" encoding="UTF-8" standalone="no"?>
<svg width="1536px" height="256px" viewBox="0 0 1536 256" version="1.1" xmlns="http://www.w3.org/2000/svg" xmlns:xlink="http://www.w3.org/1999/xlink">
    <!-- Generator: Sketch 44.1 (41455) - http://www.bohemiancoding.com/sketch -->
    <title>avine-sprite</title>
    <desc>Created with Sketch.</desc>
    <defs>
        <rect id="path-1" x="0" y="192" width="224" height="32" rx="2"></rect>
        <filter x="-2.2%" y="-15.6%" width="104.5%" height="131.2%" filterUnits="objectBoundingBox" id="filter-2">
            <feGaussianBlur stdDeviation="4" in="SourceAlpha" result="shadowBlurInner1"></feGaussianBlur>
            <feOffset dx="2" dy="-2" in="shadowBlurInner1" result="shadowOffsetInner1"></feOffset>
            <feComposite in="shadowOffsetInner1" in2="SourceAlpha" operator="arithmetic" k2="-1" k3="1" result="shadowInnerInner1"></feComposite>
            <feColorMatrix values="0 0 0 0 0   0 0 0 0 0   0 0 0 0 0  0 0 0 0.1 0" type="matrix" in="shadowInnerInner1"></feColorMatrix>
        </filter>
        <rect id="path-3" x="0" y="0" width="224" height="32" rx="2"></rect>
        <filter x="-2.2%" y="-15.6%" width="104.5%" height="131.2%" filterUnits="objectBoundingBox" id="filter-4">
            <feGaussianBlur stdDeviation="4" in="SourceAlpha" result="shadowBlurInner1"></feGaussianBlur>
            <feOffset dx="2" dy="-2" in="shadowBlurInner1" result="shadowOffsetInner1"></feOffset>
            <feComposite in="shadowOffsetInner1" in2="SourceAlpha" operator="arithmetic" k2="-1" k3="1" result="shadowInnerInner1"></feComposite>
            <feColorMatrix values="0 0 0 0 0   0 0 0 0 0   0 0 0 0 0  0 0 0 0.1 0" type="matrix" in="shadowInnerInner1"></feColorMatrix>
        </filter>
        <path d="M2,0 L32,0 L32,224 L2,224 L2,224 C0.8954305,224 1.3527075e-16,223.104569 0,222 L0,2 L0,2 C-1.3527075e-16,0.8954305 0.8954305,2.02906125e-16 2,0 Z" id="path-5"></path>
        <filter x="-15.6%" y="-2.2%" width="131.2%" height="104.5%" filterUnits="objectBoundingBox" id="filter-6">
            <feGaussianBlur stdDeviation="4" in="SourceAlpha" result="shadowBlurInner1"></feGaussianBlur>
            <feOffset dx="2" dy="-2" in="shadowBlurInner1" result="shadowOffsetInner1"></feOffset>
            <feComposite in="shadowOffsetInner1" in2="SourceAlpha" operator="arithmetic" k2="-1" k3="1" result="shadowInnerInner1"></feComposite>
            <feColorMatrix values="0 0 0 0 0   0 0 0 0 0   0 0 0 0 0  0 0 0 0.1 0" type="matrix" in="shadowInnerInner1"></feColorMatrix>
        </filter>
        <path d="M0,96 L118.113397,96 L118.113397,96 C118.677972,96 119.216248,96.2386186 119.595371,96.6569612 L144.970371,124.656961 L144.970371,124.656961 C145.712111,125.475433 145.649908,126.740234 144.831436,127.481974 C144.463567,127.815355 143.984855,128 143.488397,128 L0,128 L0,96 Z" id="path-7"></path>
        <filter x="-3.4%" y="-15.6%" width="106.8%" height="131.2%" filterUnits="objectBoundingBox" id="filter-8">
            <feGaussianBlur stdDeviation="4" in="SourceAlpha" result="shadowBlurInner1"></feGaussianBlur>
            <feOffset dx="2" dy="-2" in="shadowBlurInner1" result="shadowOffsetInner1"></feOffset>
            <feComposite in="shadowOffsetInner1" in2="SourceAlpha" operator="arithmetic" k2="-1" k3="1" result="shadowInnerInner1"></feComposite>
            <feColorMatrix values="0 0 0 0 0   0 0 0 0 0   0 0 0 0 0  0 0 0 0.1 0" type="matrix" in="shadowInnerInner1"></feColorMatrix>
        </filter>
        <linearGradient x1="100%" y1="50%" x2="0%" y2="50%" id="linearGradient-9">
            <stop stop-color="#FFFFFF" stop-opacity="0" offset="0%"></stop>
            <stop stop-color="#000000" offset="100%"></stop>
        </linearGradient>
        <linearGradient x1="0%" y1="50%" x2="100%" y2="50%" id="linearGradient-10">
            <stop stop-color="#FFFFFF" offset="0%"></stop>
            <stop stop-color="#FFFFFF" stop-opacity="0" offset="100%"></stop>
        </linearGradient>
        <path d="M32,16 L223.482409,227.428493 L223.482409,227.428493 C223.815521,227.796304 224,228.274818 224,228.771052 L224,238 L224,238 C224,239.104569 223.104569,240 222,240 L192,240 L0.517591253,28.571507 L0.517591253,28.571507 C0.18447942,28.203696 6.4115841e-17,27.7251824 4.4408921e-16,27.2289481 L0,18 L0,18 C-1.3527075e-16,16.8954305 0.8954305,16 2,16 L32,16 Z" id="path-11"></path>
        <filter x="-2.2%" y="-2.2%" width="104.5%" height="104.5%" filterUnits="objectBoundingBox" id="filter-12">
            <feGaussianBlur stdDeviation="4" in="SourceAlpha" result="shadowBlurInner1"></feGaussianBlur>
            <feOffset dx="2" dy="-2" in="shadowBlurInner1" result="shadowOffsetInner1"></feOffset>
            <feComposite in="shadowOffsetInner1" in2="SourceAlpha" operator="arithmetic" k2="-1" k3="1" result="shadowInnerInner1"></feComposite>
            <feColorMatrix values="0 0 0 0 0   0 0 0 0 0   0 0 0 0 0  0 0 0 0.1 0" type="matrix" in="shadowInnerInner1"></feColorMatrix>
        </filter>
        <linearGradient x1="14.5490641%" y1="14.3885538%" x2="21.4597829%" y2="14.3885538%" id="linearGradient-13">
            <stop stop-color="#000000" offset="0%"></stop>
            <stop stop-color="#FFFFFF" stop-opacity="0" offset="100%"></stop>
        </linearGradient>
        <path d="M194,16 L222,16 L222,16 C223.104569,16 224,16.8954305 224,18 L224,238 L224,238 C224,239.104569 223.104569,240 222,240 L192,240 L192,18 L192,18 C192,16.8954305 192.895431,16 194,16 Z" id="path-14"></path>
        <filter x="-15.6%" y="-2.2%" width="131.2%" height="104.5%" filterUnits="objectBoundingBox" id="filter-15">
            <feGaussianBlur stdDeviation="4" in="SourceAlpha" result="shadowBlurInner1"></feGaussianBlur>
            <feOffset dx="2" dy="-2" in="shadowBlurInner1" result="shadowOffsetInner1"></feOffset>
            <feComposite in="shadowOffsetInner1" in2="SourceAlpha" operator="arithmetic" k2="-1" k3="1" result="shadowInnerInner1"></feComposite>
            <feColorMatrix values="0 0 0 0 0   0 0 0 0 0   0 0 0 0 0  0 0 0 0.1 0" type="matrix" in="shadowInnerInner1"></feColorMatrix>
        </filter>
        <path d="M2,16 L32,16 L32,238 L32,238 C32,239.104569 31.1045695,240 30,240 L2,240 L2,240 C0.8954305,240 1.3527075e-16,239.104569 0,238 L0,18 L0,18 C-1.3527075e-16,16.8954305 0.8954305,16 2,16 Z" id="path-16"></path>
        <filter x="-15.6%" y="-2.2%" width="131.2%" height="104.5%" filterUnits="objectBoundingBox" id="filter-17">
            <feGaussianBlur stdDeviation="4" in="SourceAlpha" result="shadowBlurInner1"></feGaussianBlur>
            <feOffset dx="2" dy="-2" in="shadowBlurInner1" result="shadowOffsetInner1"></feOffset>
            <feComposite in="shadowOffsetInner1" in2="SourceAlpha" operator="arithmetic" k2="-1" k3="1" result="shadowInnerInner1"></feComposite>
            <feColorMatrix values="0 0 0 0 0   0 0 0 0 0   0 0 0 0 0  0 0 0 0.1 0" type="matrix" in="shadowInnerInner1"></feColorMatrix>
        </filter>
        <rect id="path-18" x="720" y="16" width="32" height="224" rx="2"></rect>
        <filter x="-37.5%" y="-3.6%" width="150.0%" height="107.1%" filterUnits="objectBoundingBox" id="filter-19">
            <feOffset dx="-4" dy="0" in="SourceAlpha" result="shadowOffsetOuter1"></feOffset>
            <feGaussianBlur stdDeviation="2" in="shadowOffsetOuter1" result="shadowBlurOuter1"></feGaussianBlur>
            <feColorMatrix values="0 0 0 0 0   0 0 0 0 0   0 0 0 0 0  0 0 0 0.2 0" type="matrix" in="shadowBlurOuter1"></feColorMatrix>
        </filter>
        <filter x="-40.6%" y="-4.0%" width="156.2%" height="108.0%" filterUnits="objectBoundingBox" id="filter-20">
            <feGaussianBlur stdDeviation="4" in="SourceAlpha" result="shadowBlurInner1"></feGaussianBlur>
            <feOffset dx="2" dy="-2" in="shadowBlurInner1" result="shadowOffsetInner1"></feOffset>
            <feComposite in="shadowOffsetInner1" in2="SourceAlpha" operator="arithmetic" k2="-1" k3="1" result="shadowInnerInner1"></feComposite>
            <feColorMatrix values="0 0 0 0 0   0 0 0 0 0   0 0 0 0 0  0 0 0 0.1 0" type="matrix" in="shadowInnerInner1"></feColorMatrix>
        </filter>
        <rect id="path-21" x="0" y="16" width="32" height="224" rx="2"></rect>
        <filter x="-15.6%" y="-2.2%" width="131.2%" height="104.5%" filterUnits="objectBoundingBox" id="filter-22">
            <feGaussianBlur stdDeviation="4" in="SourceAlpha" result="shadowBlurInner1"></feGaussianBlur>
            <feOffset dx="2" dy="-2" in="shadowBlurInner1" result="shadowOffsetInner1"></feOffset>
            <feComposite in="shadowOffsetInner1" in2="SourceAlpha" operator="arithmetic" k2="-1" k3="1" result="shadowInnerInner1"></feComposite>
            <feColorMatrix values="0 0 0 0 0   0 0 0 0 0   0 0 0 0 0  0 0 0 0.1 0" type="matrix" in="shadowInnerInner1"></feColorMatrix>
        </filter>
        <path d="M32.5954184,0.657441135 L223.482409,211.428493 L223.482409,211.428493 C223.815521,211.796304 224,212.274818 224,212.771052 L224,222 L224,222 C224,223.104569 223.104569,224 222,224 L192,224 L0.517591253,12.571507 L0.517591253,12.571507 C0.18447942,12.203696 6.4115841e-17,11.7251824 4.4408921e-16,11.2289481 L0,2 L0,2 C-1.3527075e-16,0.8954305 0.8954305,2.02906125e-16 2,0 L31.1130096,0 L31.1130096,4.4408921e-15 C31.67781,3.33385291e-15 32.2162795,0.238808612 32.5954184,0.657441135 Z" id="path-23"></path>
        <filter x="-2.2%" y="-2.2%" width="104.5%" height="104.5%" filterUnits="objectBoundingBox" id="filter-24">
            <feGaussianBlur stdDeviation="4" in="SourceAlpha" result="shadowBlurInner1"></feGaussianBlur>
            <feOffset dx="2" dy="-2" in="shadowBlurInner1" result="shadowOffsetInner1"></feOffset>
            <feComposite in="shadowOffsetInner1" in2="SourceAlpha" operator="arithmetic" k2="-1" k3="1" result="shadowInnerInner1"></feComposite>
            <feColorMatrix values="0 0 0 0 0   0 0 0 0 0   0 0 0 0 0  0 0 0 0.1 0" type="matrix" in="shadowInnerInner1"></feColorMatrix>
        </filter>
        <path d="M194,0 L222,0 L222,0 C223.104569,-2.02906125e-16 224,0.8954305 224,2 L224,222 L224,222 C224,223.104569 223.104569,224 222,224 L192,224 L192,2 L192,2 C192,0.8954305 192.895431,2.02906125e-16 194,0 Z" id="path-25"></path>
        <filter x="-15.6%" y="-2.2%" width="131.2%" height="104.5%" filterUnits="objectBoundingBox" id="filter-26">
            <feGaussianBlur stdDeviation="4" in="SourceAlpha" result="shadowBlurInner1"></feGaussianBlur>
            <feOffset dx="2" dy="-2" in="shadowBlurInner1" result="shadowOffsetInner1"></feOffset>
            <feComposite in="shadowOffsetInner1" in2="SourceAlpha" operator="arithmetic" k2="-1" k3="1" result="shadowInnerInner1"></feComposite>
            <feColorMatrix values="0 0 0 0 0   0 0 0 0 0   0 0 0 0 0  0 0 0 0.1 0" type="matrix" in="shadowInnerInner1"></feColorMatrix>
        </filter>
        <path d="M48,63.3333333 L48,112 L92.0754717,112 L48,63.3333333 Z M33,16 L48,16 L134.943396,112 L135,112 L164,144 L163.924528,144 L239.482409,227.428493 C239.815521,227.796304 240,228.274818 240,228.771052 L240,238 C240,239.104569 239.104569,240 238,240 L208.88699,240 L208.88699,240 C208.32219,240 207.783721,239.761191 207.404582,239.342559 L121.056604,144 L48,144 L48,238 C48,239.104569 47.1045695,240 46,240 L18,240 C16.8954305,240 16,239.104569 16,238 L16,18 L16,18 C16,16.8954305 16.8954305,16 18,16 L18,16 L33,16 Z" id="path-27"></path>
        <filter x="-5.4%" y="-5.4%" width="110.7%" height="110.7%" filterUnits="objectBoundingBox" id="filter-28">
            <feOffset dx="0" dy="0" in="SourceAlpha" result="shadowOffsetOuter1"></feOffset>
            <feGaussianBlur stdDeviation="4" in="shadowOffsetOuter1" result="shadowBlurOuter1"></feGaussianBlur>
            <feColorMatrix values="0 0 0 0 0   0 0 0 0 0   0 0 0 0 0  0 0 0 0.2 0" type="matrix" in="shadowBlurOuter1"></feColorMatrix>
        </filter>
        <path d="M32,16 L223.482409,227.428493 L223.482409,227.428493 C223.815521,227.796304 224,228.274818 224,228.771052 L224,238 L224,238 C224,239.104569 223.104569,240 222,240 L192.88699,240 L192.88699,240 C192.32219,240 191.783721,239.761191 191.404582,239.342559 L0.517591253,28.571507 L0.517591253,28.571507 C0.18447942,28.203696 6.4115841e-17,27.7251824 4.4408921e-16,27.2289481 L0,18 L0,18 C-1.3527075e-16,16.8954305 0.8954305,16 2,16 L32,16 Z" id="path-29"></path>
        <filter x="-2.2%" y="-2.2%" width="104.5%" height="104.5%" filterUnits="objectBoundingBox" id="filter-30">
            <feGaussianBlur stdDeviation="4" in="SourceAlpha" result="shadowBlurInner1"></feGaussianBlur>
            <feOffset dx="2" dy="-2" in="shadowBlurInner1" result="shadowOffsetInner1"></feOffset>
            <feComposite in="shadowOffsetInner1" in2="SourceAlpha" operator="arithmetic" k2="-1" k3="1" result="shadowInnerInner1"></feComposite>
            <feColorMatrix values="0 0 0 0 0   0 0 0 0 0   0 0 0 0 0  0 0 0 0.1 0" type="matrix" in="shadowInnerInner1"></feColorMatrix>
        </filter>
        <polygon id="path-31" points="0 112 119 112 148 144 0 144"></polygon>
        <filter x="-3.4%" y="-15.6%" width="106.8%" height="131.2%" filterUnits="objectBoundingBox" id="filter-32">
            <feGaussianBlur stdDeviation="4" in="SourceAlpha" result="shadowBlurInner1"></feGaussianBlur>
            <feOffset dx="2" dy="-2" in="shadowBlurInner1" result="shadowOffsetInner1"></feOffset>
            <feComposite in="shadowOffsetInner1" in2="SourceAlpha" operator="arithmetic" k2="-1" k3="1" result="shadowInnerInner1"></feComposite>
            <feColorMatrix values="0 0 0 0 0   0 0 0 0 0   0 0 0 0 0  0 0 0 0.1 0" type="matrix" in="shadowInnerInner1"></feColorMatrix>
        </filter>
        <linearGradient x1="50%" y1="0%" x2="50%" y2="100%" id="linearGradient-33">
            <stop stop-color="#FFFFFF" stop-opacity="0" offset="0%"></stop>
            <stop stop-color="#000000" offset="100%"></stop>
        </linearGradient>
        <path d="M2,16 L32,16 L32,238 L32,238 C32,239.104569 31.1045695,240 30,240 L2,240 L2,240 C0.8954305,240 1.3527075e-16,239.104569 0,238 L0,18 L0,18 C-1.3527075e-16,16.8954305 0.8954305,16 2,16 Z" id="path-34"></path>
        <filter x="-15.6%" y="-2.2%" width="131.2%" height="104.5%" filterUnits="objectBoundingBox" id="filter-35">
            <feGaussianBlur stdDeviation="4" in="SourceAlpha" result="shadowBlurInner1"></feGaussianBlur>
            <feOffset dx="2" dy="-2" in="shadowBlurInner1" result="shadowOffsetInner1"></feOffset>
            <feComposite in="shadowOffsetInner1" in2="SourceAlpha" operator="arithmetic" k2="-1" k3="1" result="shadowInnerInner1"></feComposite>
            <feColorMatrix values="0 0 0 0 0   0 0 0 0 0   0 0 0 0 0  0 0 0 0.1 0" type="matrix" in="shadowInnerInner1"></feColorMatrix>
        </filter>
        <rect id="path-36" x="0" y="0" width="32" height="8" rx="2"></rect>
        <filter x="-15.6%" y="-62.5%" width="131.2%" height="225.0%" filterUnits="objectBoundingBox" id="filter-37">
            <feGaussianBlur stdDeviation="4" in="SourceAlpha" result="shadowBlurInner1"></feGaussianBlur>
            <feOffset dx="2" dy="-2" in="shadowBlurInner1" result="shadowOffsetInner1"></feOffset>
            <feComposite in="shadowOffsetInner1" in2="SourceAlpha" operator="arithmetic" k2="-1" k3="1" result="shadowInnerInner1"></feComposite>
            <feColorMatrix values="0 0 0 0 0   0 0 0 0 0   0 0 0 0 0  0 0 0 0.1 0" type="matrix" in="shadowInnerInner1"></feColorMatrix>
        </filter>
    </defs>
    <g id="Sprite" stroke="none" stroke-width="1" fill="none" fill-rule="evenodd">
        <g id="E" transform="translate(1040.000000, 16.000000)">
            <g>
                <g id="line-bottom">
                    <use fill="#FFFFFF" fill-rule="evenodd" xlink:href="#path-1"></use>
                    <use fill="black" fill-opacity="1" filter="url(#filter-2)" xlink:href="#path-1"></use>
                </g>
                <g id="line-top">
                    <use fill="#FFFFFF" fill-rule="evenodd" xlink:href="#path-3"></use>
                    <use fill="black" fill-opacity="1" filter="url(#filter-4)" xlink:href="#path-3"></use>
                </g>
                <g id="line-left">
                    <use fill="#FFFFFF" fill-rule="evenodd" xlink:href="#path-5"></use>
                    <use fill="black" fill-opacity="1" filter="url(#filter-6)" xlink:href="#path-5"></use>
                </g>
                <g id="line-middle">
                    <use fill="#FFFFFF" fill-rule="evenodd" xlink:href="#path-7"></use>
                    <use fill="black" fill-opacity="1" filter="url(#filter-8)" xlink:href="#path-7"></use>
                </g>
                <g id="shadow-base-symbol" transform="translate(32.000000, 192.000000)">
                    <rect id="shadow" fill-opacity="0.3" fill="url(#linearGradient-9)" x="0" y="0" width="16" height="32"></rect>
                    <rect id="light" fill="url(#linearGradient-10)" opacity="0.7" x="0" y="0" width="16" height="1"></rect>
                </g>
                <g id="shadow-base-symbol" transform="translate(32.000000, 0.000000)">
                    <rect id="shadow" fill-opacity="0.3" fill="url(#linearGradient-9)" x="0" y="0" width="16" height="32"></rect>
                    <rect id="light" fill="url(#linearGradient-10)" opacity="0.7" x="0" y="0" width="16" height="1"></rect>
                </g>
                <g id="shadow-base-symbol" transform="translate(16.000000, 136.000000) scale(-1, 1) rotate(90.000000) translate(-16.000000, -136.000000) translate(8.000000, 120.000000)">
                    <rect id="shadow" fill-opacity="0.3" fill="url(#linearGradient-9)" x="0" y="0" width="16" height="32"></rect>
                    <rect id="light" fill="url(#linearGradient-10)" opacity="0.7" x="0" y="0" width="16" height="1"></rect>
                </g>
                <g id="shadow-base-symbol" transform="translate(16.000000, 88.000000) rotate(-90.000000) translate(-16.000000, -88.000000) translate(8.000000, 72.000000)">
                    <rect id="shadow" fill-opacity="0.3" fill="url(#linearGradient-9)" x="0" y="0" width="16" height="32"></rect>
                    <rect id="light" fill="url(#linearGradient-10)" opacity="0.7" x="0" y="0" width="16" height="1"></rect>
                </g>
            </g>
        </g>
        <g id="N" transform="translate(784.000000, 0.000000)">
            <g>
                <g id="line-diagonal">
                    <use fill="#FFFFFF" fill-rule="evenodd" xlink:href="#path-11"></use>
                    <use fill="black" fill-opacity="1" filter="url(#filter-12)" xlink:href="#path-11"></use>
                </g>
                <g id="shadow-right" transform="translate(112.000000, 136.000000) scale(-1, -1) translate(-112.000000, -136.000000) translate(0.000000, 16.000000)" fill-opacity="0.3" fill="url(#linearGradient-13)">
                    <path d="M32,16 L223.482409,227.428493 L223.482409,227.428493 C223.815521,227.796304 224,228.274818 224,228.771052 L224,238 L224,238 C224,239.104569 223.104569,240 222,240 L192.88699,240 L192.88699,240 C192.32219,240 191.783721,239.761191 191.404582,239.342559 L0.517591253,28.571507 L0.517591253,28.571507 C0.18447942,28.203696 6.4115841e-17,27.7251824 4.4408921e-16,27.2289481 L0,18 L0,18 C-1.3527075e-16,16.8954305 0.8954305,16 2,16 L32,16 Z" id="shadow"></path>
                </g>
                <g id="shadow-left" fill-opacity="0.3" fill="url(#linearGradient-13)">
                    <path d="M32,16 L223.482409,227.428493 L223.482409,227.428493 C223.815521,227.796304 224,228.274818 224,228.771052 L224,238 L224,238 C224,239.104569 223.104569,240 222,240 L192.88699,240 L192.88699,240 C192.32219,240 191.783721,239.761191 191.404582,239.342559 L0.517591253,28.571507 L0.517591253,28.571507 C0.18447942,28.203696 6.4115841e-17,27.7251824 4.4408921e-16,27.2289481 L0,18 L0,18 C-1.3527075e-16,16.8954305 0.8954305,16 2,16 L32,16 Z" id="shadow"></path>
                </g>
                <g id="line-right">
                    <use fill="#FFFFFF" fill-rule="evenodd" xlink:href="#path-14"></use>
                    <use fill="black" fill-opacity="1" filter="url(#filter-15)" xlink:href="#path-14"></use>
                </g>
                <g id="line-left">
                    <use fill="#FFFFFF" fill-rule="evenodd" xlink:href="#path-16"></use>
                    <use fill="black" fill-opacity="1" filter="url(#filter-17)" xlink:href="#path-16"></use>
                </g>
            </g>
        </g>
        <g id="I-shape-shadow">
            <use fill="black" fill-opacity="1" filter="url(#filter-19)" xlink:href="#path-18"></use>
            <use fill="#FFFFFF" fill-rule="evenodd" xlink:href="#path-18"></use>
            <use fill="black" fill-opacity="1" filter="url(#filter-20)" xlink:href="#path-18"></use>
        </g>
        <g id="I-(line)" transform="translate(720.000000, 0.000000)">
            <g id="I">
                <g id="line-right">
                    <use fill="#FFFFFF" fill-rule="evenodd" xlink:href="#path-21"></use>
                    <use fill="black" fill-opacity="1" filter="url(#filter-22)" xlink:href="#path-21"></use>
                </g>
            </g>
        </g>
        <g id="V" transform="translate(272.000000, 16.000000)">
            <g>
                <g id="line-diagonal">
                    <use fill="#FFFFFF" fill-rule="evenodd" xlink:href="#path-23"></use>
                    <use fill="black" fill-opacity="1" filter="url(#filter-24)" xlink:href="#path-23"></use>
                </g>
                <g id="shadow-diagonal" transform="translate(112.000000, 120.000000) scale(-1, -1) translate(-112.000000, -120.000000) " fill-opacity="0.3" fill="url(#linearGradient-13)">
                    <path d="M32,16 L223.482409,227.428493 L223.482409,227.428493 C223.815521,227.796304 224,228.274818 224,228.771052 L224,238 L224,238 C224,239.104569 223.104569,240 222,240 L192.88699,240 L192.88699,240 C192.32219,240 191.783721,239.761191 191.404582,239.342559 L0.517591253,28.571507 L0.517591253,28.571507 C0.18447942,28.203696 6.4115841e-17,27.7251824 4.4408921e-16,27.2289481 L0,18 L0,18 C-1.3527075e-16,16.8954305 0.8954305,16 2,16 L32,16 Z" id="shadow"></path>
                </g>
                <g id="line-right">
                    <use fill="#FFFFFF" fill-rule="evenodd" xlink:href="#path-25"></use>
                    <use fill="black" fill-opacity="1" filter="url(#filter-26)" xlink:href="#path-25"></use>
                </g>
            </g>
        </g>
        <g id="A-shape-shadow">
            <use fill="black" fill-opacity="1" filter="url(#filter-28)" xlink:href="#path-27"></use>
            <use fill="#FFFFFF" fill-rule="evenodd" xlink:href="#path-27"></use>
        </g>
        <g id="A" transform="translate(16.000000, 0.000000)">
            <g>
                <g id="line-diagonal">
                    <use fill="#FFFFFF" fill-rule="evenodd" xlink:href="#path-29"></use>
                    <use fill="black" fill-opacity="1" filter="url(#filter-30)" xlink:href="#path-29"></use>
                </g>
                <g id="line-middle">
                    <use fill="#FFFFFF" fill-rule="evenodd" xlink:href="#path-31"></use>
                    <use fill="black" fill-opacity="1" filter="url(#filter-32)" xlink:href="#path-31"></use>
                </g>
                <g id="shadow-base-symbol" transform="translate(32.000000, 112.000000)">
                    <rect id="shadow" fill-opacity="0.3" fill="url(#linearGradient-9)" x="0" y="0" width="16" height="32"></rect>
                    <rect id="light" fill="url(#linearGradient-10)" opacity="0.7" x="0" y="0" width="16" height="1"></rect>
                </g>
                <g id="shadow-diagonal-middle-symbol" transform="translate(134.000000, 152.000000) scale(-1, -1) translate(-134.000000, -152.000000) translate(105.000000, 144.000000)" fill-opacity="0.3" fill="url(#linearGradient-33)">
                    <polygon id="shadow" points="0.5 0 43.5 0 58 16 15 16"></polygon>
                </g>
                <g id="shadow-diagonal-middle-symbol" transform="translate(61.000000, 96.000000)" fill-opacity="0.3" fill="url(#linearGradient-33)">
                    <polygon id="shadow" points="0.5 0 43.5 0 58 16 15 16"></polygon>
                </g>
                <g id="shadow-diagonal-top" fill-opacity="0.3" fill="url(#linearGradient-13)">
                    <path d="M32,16 L223.482409,227.428493 L223.482409,227.428493 C223.815521,227.796304 224,228.274818 224,228.771052 L224,238 L224,238 C224,239.104569 223.104569,240 222,240 L192.88699,240 L192.88699,240 C192.32219,240 191.783721,239.761191 191.404582,239.342559 L0.517591253,28.571507 L0.517591253,28.571507 C0.18447942,28.203696 6.4115841e-17,27.7251824 4.4408921e-16,27.2289481 L0,18 L0,18 C-1.3527075e-16,16.8954305 0.8954305,16 2,16 L32,16 Z" id="shadow"></path>
                </g>
                <g id="line-left">
                    <use fill="#FFFFFF" fill-rule="evenodd" xlink:href="#path-34"></use>
                    <use fill="black" fill-opacity="1" filter="url(#filter-35)" xlink:href="#path-34"></use>
                </g>
            </g>
        </g>
        <g id="I-(point)" transform="translate(1488.000000, 0.000000)">
            <g id="I">
                <g id="point">
                    <use fill="#FFFFFF" fill-rule="evenodd" xlink:href="#path-36"></use>
                    <use fill="black" fill-opacity="1" filter="url(#filter-37)" xlink:href="#path-36"></use>
                </g>
            </g>
        </g>
    </g>
</svg>