<?xml version="1.0" standalone="no"?>
<!DOCTYPE svg PUBLIC "-//W3C//DTD SVG 20010904//EN"
 "http://www.w3.org/TR/2001/REC-SVG-20010904/DTD/svg10.dtd">
<svg version="1.0" xmlns="http://www.w3.org/2000/svg"
 width="700.000000pt" height="700.000000pt" viewBox="0 0 700.000000 700.000000"
 preserveAspectRatio="xMidYMid meet">
<metadata>
Created by potrace 1.11, written by Peter Selinger 2001-2013
</metadata>
<g transform="translate(0.000000,700.000000) scale(0.100000,-0.100000)"
fill="#000000" stroke="none">
<path d="M5706 6984 c-17 -17 -19 -30 -17 -114 3 -93 -20 -89 440 -89 464 -1
429 -9 434 108 4 119 38 111 -438 111 -354 0 -406 -2 -419 -16z"/>
<path d="M470 6558 c-11 -4 -24 -18 -28 -30 -5 -13 -8 -1381 -8 -3040 1 -2829
2 -3018 18 -3034 16 -16 206 -17 3045 -18 2775 -1 3029 0 3047 15 20 16 20 29
20 3045 1 2757 0 3030 -15 3048 -16 19 -44 19 -3038 20 -1661 1 -3030 -2
-3041 -6z m5218 -2845 l0 -1977 -56 59 c-44 46 -214 233 -327 359 -5 6 -53 59
-105 116 -52 58 -99 110 -105 116 -5 6 -30 33 -55 60 -25 27 -83 92 -130 144
-75 84 -142 158 -190 210 -33 35 -178 197 -207 230 -29 34 -198 224 -218 246
-64 70 -218 240 -380 419 -110 121 -208 229 -219 240 -12 12 -64 67 -116 125
-52 57 -106 115 -119 129 -12 14 -49 55 -81 91 -32 36 -70 79 -85 95 -16 17
-51 55 -79 86 -67 72 -190 210 -213 236 -15 17 -128 141 -212 232 -12 14 -55
62 -95 105 -39 44 -82 91 -96 106 -14 15 -56 63 -95 105 -65 73 -137 152 -194
214 -12 14 -55 62 -95 106 -39 43 -79 87 -88 97 -10 10 -18 20 -18 22 0 3 805
5 1789 5 l1789 1 0 -1977z m-4314 1489 c27 -31 74 -84 105 -118 72 -78 205
-225 262 -288 24 -27 54 -60 66 -74 13 -13 58 -63 100 -110 43 -48 99 -109
124 -137 61 -66 85 -93 161 -177 35 -39 74 -83 88 -98 14 -15 54 -60 90 -100
36 -40 76 -85 90 -99 65 -67 118 -61 -547 -61 l-598 0 -1 660 c0 363 3 660 6
659 3 0 27 -26 54 -57z m1961 -2166 c18 -21 109 -121 236 -261 25 -27 64 -70
86 -95 23 -25 54 -59 69 -76 16 -17 58 -64 94 -104 36 -41 74 -83 85 -94 11
-12 65 -71 119 -131 55 -61 136 -150 180 -199 45 -49 86 -94 91 -100 32 -36
115 -129 159 -176 28 -30 71 -78 95 -105 24 -28 67 -75 95 -105 72 -78 219
-242 234 -261 11 -15 -131 -16 -1772 -17 -1324 0 -1786 3 -1789 12 -3 9 -2
1727 2 1734 0 1 450 2 998 2 l997 0 21 -24z"/>
</g>
</svg>
